# Blender 4.0.1
# www.blender.org
mtllib tank_wheels.mtl
o Wheels
v -0.759531 0.481448 0.599386
v -0.759531 0.481448 0.420586
v 0.759531 0.481448 0.420586
v 0.759531 0.481448 0.599386
v 0.922156 0.318029 0.599386
v 0.696495 0.280000 0.599386
v 0.922155 0.318029 0.420586
v 0.696495 0.280000 0.420586
v 0.589535 0.000000 0.599386
v 0.785758 0.025897 0.599386
v 0.645553 0.001267 0.599386
v 0.697826 0.004946 0.599386
v 0.741236 0.010675 0.599386
v 0.771536 0.017894 0.599386
v 0.785758 0.025897 0.420586
v 0.589535 0.000000 0.420586
v 0.771536 0.017894 0.420586
v 0.741236 0.010675 0.420586
v 0.697826 0.004946 0.420586
v 0.645553 0.001267 0.420586
v 0.929724 0.268377 0.599386
v 0.811292 0.261501 0.599386
v 0.929724 0.268377 0.420586
v 0.811292 0.261501 0.420586
v 0.921846 0.238723 0.599386
v 0.865311 0.237565 0.599386
v 0.921846 0.238723 0.420586
v 0.865311 0.237565 0.420586
v 0.887609 0.174430 0.599386
v 0.907940 0.209462 0.599386
v 0.886474 0.209399 0.599386
v 0.907940 0.209462 0.420586
v 0.887609 0.174430 0.420586
v 0.886474 0.209399 0.420586
v -0.798811 0.044933 0.599386
v -0.458353 0.000000 0.599386
v -0.786851 0.036167 0.599386
v -0.763450 0.027738 0.599386
v -0.729509 0.019969 0.599386
v -0.686331 0.013160 0.599386
v -0.635576 0.007573 0.599386
v -0.579195 0.003420 0.599386
v -0.519354 0.000863 0.599386
v -0.458353 0.000000 0.420586
v -0.798811 0.044933 0.420586
v -0.519354 0.000863 0.420586
v -0.579195 0.003420 0.420586
v -0.635576 0.007573 0.420586
v -0.686331 0.013160 0.420586
v -0.729509 0.019969 0.420586
v -0.763450 0.027738 0.420586
v -0.786851 0.036167 0.420586
v -0.929371 0.310779 0.599386
v -0.746732 0.280000 0.599386
v -0.929371 0.310779 0.420586
v -0.746732 0.280000 0.420586
v -0.935822 0.268453 0.599386
v -0.849495 0.263440 0.599386
v -0.935822 0.268453 0.420586
v -0.849495 0.263440 0.420586
v -0.929682 0.245340 0.599386
v -0.892083 0.244569 0.599386
v -0.929682 0.245340 0.420586
v -0.892083 0.244569 0.420586
v -0.919421 0.223748 0.599386
v -0.908371 0.204707 0.599386
v -0.907753 0.223714 0.599386
v -0.908371 0.204707 0.420586
v -0.919421 0.223748 0.420586
v -0.907753 0.223714 0.420586
v -0.759531 0.481448 -0.421293
v -0.759531 0.481448 -0.599693
v 0.759531 0.481448 -0.599693
v 0.759531 0.481448 -0.421293
v 0.922156 0.318030 -0.421293
v 0.696495 0.280000 -0.421293
v 0.922156 0.318030 -0.599693
v 0.696495 0.280000 -0.599693
v 0.589535 0.000000 -0.421293
v 0.785758 0.025897 -0.421293
v 0.645553 0.001267 -0.421293
v 0.697826 0.004946 -0.421293
v 0.741237 0.010675 -0.421293
v 0.771536 0.017894 -0.421293
v 0.785758 0.025897 -0.599693
v 0.589535 0.000000 -0.599693
v 0.771536 0.017894 -0.599693
v 0.741237 0.010675 -0.599693
v 0.697826 0.004946 -0.599693
v 0.645553 0.001267 -0.599693
v 0.929724 0.268378 -0.421293
v 0.811292 0.261501 -0.421293
v 0.929724 0.268378 -0.599693
v 0.811292 0.261501 -0.599693
v 0.921846 0.238723 -0.421293
v 0.865311 0.237565 -0.421293
v 0.921846 0.238723 -0.599693
v 0.865311 0.237565 -0.599693
v 0.887609 0.174430 -0.421293
v 0.907940 0.209462 -0.421293
v 0.886474 0.209399 -0.421293
v 0.907940 0.209462 -0.599693
v 0.887609 0.174430 -0.599693
v 0.886474 0.209399 -0.599693
v -0.798811 0.044933 -0.421293
v -0.458353 0.000000 -0.421293
v -0.786851 0.036167 -0.421293
v -0.763450 0.027738 -0.421293
v -0.729509 0.019969 -0.421293
v -0.686331 0.013160 -0.421293
v -0.635576 0.007573 -0.421293
v -0.579195 0.003420 -0.421293
v -0.519354 0.000863 -0.421293
v -0.458353 0.000000 -0.599693
v -0.798811 0.044933 -0.599693
v -0.519354 0.000863 -0.599693
v -0.579195 0.003420 -0.599693
v -0.635576 0.007573 -0.599693
v -0.686331 0.013160 -0.599693
v -0.729509 0.019969 -0.599693
v -0.763450 0.027738 -0.599693
v -0.786851 0.036167 -0.599693
v -0.929371 0.310779 -0.421293
v -0.746733 0.280000 -0.421293
v -0.929371 0.310779 -0.599693
v -0.746733 0.280000 -0.599693
v -0.935822 0.268453 -0.421293
v -0.849495 0.263441 -0.421293
v -0.935822 0.268453 -0.599693
v -0.849495 0.263441 -0.599693
v -0.929682 0.245340 -0.421293
v -0.892084 0.244569 -0.421293
v -0.929682 0.245340 -0.599693
v -0.892084 0.244569 -0.599693
v -0.919421 0.223748 -0.421293
v -0.908371 0.204707 -0.421293
v -0.907754 0.223714 -0.421293
v -0.908371 0.204707 -0.599693
v -0.919421 0.223748 -0.599693
v -0.907754 0.223714 -0.599693
vn -0.0000 -0.0000 -1.0000
vn -0.0000 -0.0000 1.0000
vn -0.0000 1.0000 -0.0000
vn -0.7088 0.7054 -0.0000
vn 0.9886 0.1507 -0.0000
vn 0.7088 0.7054 -0.0000
vn 0.0226 -0.9997 -0.0000
vn 0.0702 -0.9975 -0.0000
vn 0.1308 -0.9914 -0.0000
vn 0.2318 -0.9728 -0.0000
vn 0.4904 -0.8715 -0.0000
vn 0.9665 -0.2567 -0.0000
vn 0.9032 -0.4292 -0.0000
vn 0.8247 -0.5655 -0.0000
vn 0.8649 -0.5019 -0.0000
vn -0.0142 -0.9999 -0.0000
vn -0.0427 -0.9991 -0.0000
vn -0.0734 -0.9973 -0.0000
vn -0.1094 -0.9940 -0.0000
vn -0.1558 -0.9878 -0.0000
vn -0.2231 -0.9748 -0.0000
vn -0.3389 -0.9408 -0.0000
vn -0.5911 -0.8066 -0.0000
vn -0.0000 -1.0000 -0.0000
vn -0.9886 0.1507 -0.0000
vn -0.8247 -0.5655 -0.0000
vn -0.9665 -0.2567 -0.0000
vn -0.8649 -0.5019 -0.0000
vn -0.9032 -0.4292 -0.0000
vt 0.625000 0.500000
vt 0.625000 0.465689
vt 0.625000 0.277769
vt 0.625000 0.250000
vt 0.625000 0.250000
vt 0.610215 0.262910
vt 0.614480 0.250000
vt 0.651814 0.250000
vt 0.625000 0.482289
vt 0.625000 1.000000
vt 0.625000 0.972231
vt 0.625000 0.784311
vt 0.625000 0.750000
vt 0.875000 0.500000
vt 0.875000 0.750000
vt 0.625000 0.000000
vt 0.602774 0.750000
vt 0.602774 0.500000
vt 0.585859 0.491997
vt 0.561162 0.497001
vt 0.561964 0.496730
vt 0.587111 0.491460
vt 0.345953 0.750000
vt 0.345953 0.500000
vt 0.355070 0.500000
vt 0.355070 0.750000
vt 0.363578 0.500000
vt 0.363578 0.750000
vt 0.384092 0.500000
vt 0.384092 0.750000
vt 0.390864 0.500000
vt 0.390864 0.750000
vt 0.398122 0.500000
vt 0.398122 0.750000
vt 0.604186 0.486607
vt 0.583537 0.494086
vt 0.608483 0.482289
vt 0.582913 0.750000
vt 0.582913 0.500000
vt 0.608483 0.767711
vt 0.614335 0.750000
vt 0.658131 0.750000
vt 0.560059 0.750000
vt 0.560059 0.500000
vt 0.530741 0.500000
vt 0.530741 0.750000
vt 0.587111 0.758540
vt 0.583537 0.755914
vt 0.604186 0.763393
vt 0.546360 0.750000
vt 0.561162 0.752999
vt 0.561964 0.753270
vt 0.546360 0.500000
vt 0.585859 0.758003
vt 0.175398 0.500000
vt 0.175398 0.750000
vt 0.165470 0.750000
vt 0.165470 0.500000
vt 0.155730 0.750000
vt 0.155730 0.500000
vt 0.146553 0.750000
vt 0.146553 0.500000
vt 0.125000 0.750000
vt 0.125000 0.500000
vt 0.375000 0.250000
vt 0.375000 0.000000
vt 0.392157 0.000000
vt 0.392157 0.250000
vt 0.399462 0.000000
vt 0.399462 0.250000
vt 0.407215 0.000000
vt 0.407215 0.250000
vt 0.415119 0.000000
vt 0.415119 0.250000
vt 0.574745 0.251777
vt 0.574309 0.251630
vt 0.592532 0.255322
vt 0.593365 0.255680
vt 0.625000 0.996012
vt 0.606053 0.998747
vt 0.610215 0.987090
vt 0.590988 0.253933
vt 0.607083 0.259762
vt 0.375000 0.779047
vt 0.376132 0.769973
vt 0.379416 0.761668
vt 0.384531 0.755241
vt 0.390977 0.751323
vt 0.593365 0.994320
vt 0.574745 0.998223
vt 0.557774 1.000000
vt 0.415119 1.000000
vt 0.407292 0.999105
vt 0.399766 0.996434
vt 0.392830 0.992017
vt 0.386750 0.985871
vt 0.381761 0.978109
vt 0.378054 0.969154
vt 0.375771 0.959506
vt 0.375000 0.949602
vt 0.607083 0.990238
vt 0.590988 0.996067
vt 0.606053 0.250000
vt 0.606053 0.000000
vt 0.557774 0.000000
vt 0.557774 0.250000
vt 0.375000 0.300398
vt 0.375771 0.290494
vt 0.378054 0.280846
vt 0.381761 0.271892
vt 0.386750 0.264129
vt 0.392830 0.257983
vt 0.399766 0.253566
vt 0.407292 0.250895
vt 0.390977 0.498677
vt 0.384531 0.494759
vt 0.379416 0.488332
vt 0.376132 0.480027
vt 0.375000 0.470953
vt 0.592532 0.994678
vt 0.574309 0.998370
vt 0.590573 0.250000
vt 0.590573 0.000000
vt 0.566263 0.000000
vt 0.566263 0.250000
vt 0.573709 0.000000
vt 0.573709 0.250000
s 0
usemtl Material.001
f 7/1/1 8/2/1 56/3/1 55/4/1 2/5/1 3/1/1
f 60/6/1 59/7/1 55/8/1 56/3/1
f 7/1/1 23/1/1 24/9/1 8/2/1
f 53/10/2 54/11/2 6/12/2 5/13/2 4/13/2 1/10/2
f 3/1/3 2/14/3 1/15/3 4/13/3
f 55/4/4 53/16/4 1/16/4 2/5/4
f 7/1/5 5/13/5 21/17/5 23/18/5
f 27/19/1 32/20/1 34/21/1 28/22/1
f 5/13/6 7/1/6 3/1/6 4/13/6
f 9/23/7 16/24/7 20/25/7 11/26/7
f 11/26/8 20/25/8 19/27/8 12/28/8
f 12/28/9 19/27/9 18/29/9 13/30/9
f 13/30/10 18/29/10 17/31/10 14/32/10
f 14/32/11 17/31/11 15/33/11 10/34/11
f 23/35/1 27/36/1 28/22/1 24/37/1
f 25/38/12 27/39/12 23/18/12 21/17/12
f 22/40/2 21/41/2 5/42/2 6/12/2
f 30/43/13 32/44/13 27/39/13 25/38/13
f 15/33/14 33/45/14 29/46/14 10/34/14
f 26/47/2 25/48/2 21/49/2 22/40/2
f 29/50/2 30/51/2 31/52/2
f 32/20/1 33/53/1 34/21/1
f 29/46/15 33/45/15 32/44/15 30/43/15
f 31/52/2 30/51/2 25/54/2 26/47/2
f 44/55/16 36/56/16 43/57/16 46/58/16
f 46/58/17 43/57/17 42/59/17 47/60/17
f 47/60/18 42/59/18 41/61/18 48/62/18
f 48/62/19 41/61/19 40/63/19 49/64/19
f 49/65/20 40/66/20 39/67/20 50/68/20
f 50/68/21 39/67/21 38/69/21 51/70/21
f 51/70/22 38/69/22 37/71/22 52/72/22
f 52/72/23 37/71/23 35/73/23 45/74/23
f 44/55/24 16/24/24 9/23/24 36/56/24
f 70/75/1 69/76/1 63/77/1 64/78/1
f 53/79/2 57/80/2 58/81/2 54/11/2
f 64/78/1 63/82/1 59/83/1 60/6/1
f 9/84/2 11/85/2 12/86/2 13/87/2 14/88/2 10/34/2 29/46/2 31/52/2 26/47/2 22/40/2 6/12/2 54/11/2 58/81/2 62/89/2 67/90/2 66/91/2 35/92/2 37/93/2 38/94/2 39/95/2 40/96/2 41/97/2 42/98/2 43/99/2 36/100/2
f 57/101/2 61/102/2 62/89/2 58/81/2
f 53/16/25 55/4/25 59/103/25 57/104/25
f 35/73/26 66/105/26 68/106/26 45/74/26
f 44/107/1 46/108/1 47/109/1 48/110/1 49/111/1 50/112/1 51/113/1 52/114/1 45/74/1 68/106/1 70/75/1 64/78/1 60/6/1 56/3/1 8/2/1 24/37/1 28/22/1 34/21/1 33/45/1 15/33/1 17/115/1 18/116/1 19/117/1 20/118/1 16/119/1
f 61/120/2 65/121/2 67/90/2 62/89/2
f 63/122/27 61/123/27 57/104/27 59/103/27
f 65/124/2 66/105/2 67/124/2
f 68/106/1 69/125/1 70/125/1
f 68/106/28 66/105/28 65/126/28 69/127/28
f 69/127/29 65/126/29 61/123/29 63/122/29
f 77/1/1 78/2/1 126/3/1 125/4/1 72/5/1 73/1/1
f 130/6/1 129/7/1 125/8/1 126/3/1
f 77/1/1 93/1/1 94/9/1 78/2/1
f 123/10/2 124/11/2 76/12/2 75/13/2 74/13/2 71/10/2
f 73/1/3 72/14/3 71/15/3 74/13/3
f 125/4/4 123/16/4 71/16/4 72/5/4
f 77/1/5 75/13/5 91/17/5 93/18/5
f 97/19/1 102/20/1 104/21/1 98/22/1
f 75/13/6 77/1/6 73/1/6 74/13/6
f 79/23/7 86/24/7 90/25/7 81/26/7
f 81/26/8 90/25/8 89/27/8 82/28/8
f 82/28/9 89/27/9 88/29/9 83/30/9
f 83/30/10 88/29/10 87/31/10 84/32/10
f 84/32/11 87/31/11 85/33/11 80/34/11
f 93/35/1 97/36/1 98/22/1 94/37/1
f 95/38/12 97/39/12 93/18/12 91/17/12
f 92/40/2 91/41/2 75/42/2 76/12/2
f 100/43/13 102/44/13 97/39/13 95/38/13
f 85/33/14 103/45/14 99/46/14 80/34/14
f 96/47/2 95/48/2 91/49/2 92/40/2
f 99/50/2 100/51/2 101/52/2
f 102/20/1 103/53/1 104/21/1
f 99/46/15 103/45/15 102/44/15 100/43/15
f 101/52/2 100/51/2 95/54/2 96/47/2
f 114/55/16 106/56/16 113/57/16 116/58/16
f 116/58/17 113/57/17 112/59/17 117/60/17
f 117/60/18 112/59/18 111/61/18 118/62/18
f 118/62/19 111/61/19 110/63/19 119/64/19
f 119/65/20 110/66/20 109/67/20 120/68/20
f 120/68/21 109/67/21 108/69/21 121/70/21
f 121/70/22 108/69/22 107/71/22 122/72/22
f 122/72/23 107/71/23 105/73/23 115/74/23
f 114/55/24 86/24/24 79/23/24 106/56/24
f 140/75/1 139/76/1 133/77/1 134/78/1
f 123/79/2 127/80/2 128/81/2 124/11/2
f 134/78/1 133/82/1 129/83/1 130/6/1
f 79/84/2 81/85/2 82/86/2 83/87/2 84/88/2 80/34/2 99/46/2 101/52/2 96/47/2 92/40/2 76/12/2 124/11/2 128/81/2 132/89/2 137/90/2 136/91/2 105/92/2 107/93/2 108/94/2 109/95/2 110/96/2 111/97/2 112/98/2 113/99/2 106/100/2
f 127/101/2 131/102/2 132/89/2 128/81/2
f 123/16/25 125/4/25 129/103/25 127/104/25
f 105/73/26 136/105/26 138/106/26 115/74/26
f 114/107/1 116/108/1 117/109/1 118/110/1 119/111/1 120/112/1 121/113/1 122/114/1 115/74/1 138/106/1 140/75/1 134/78/1 130/6/1 126/3/1 78/2/1 94/37/1 98/22/1 104/21/1 103/45/1 85/33/1 87/115/1 88/116/1 89/117/1 90/118/1 86/119/1
f 131/120/2 135/121/2 137/90/2 132/89/2
f 133/122/27 131/123/27 127/104/27 129/103/27
f 135/124/2 136/105/2 137/124/2
f 138/106/1 139/125/1 140/125/1
f 138/106/28 136/105/28 135/126/28 139/127/28
f 139/127/29 135/126/29 131/123/29 133/122/29
