# Blender 4.0.1
# www.blender.org
mtllib tower.mtl
o Cube.001
v -1.002693 2.002693 0.289565
v -0.289565 2.002693 1.002693
v -0.289565 -0.002693 1.002693
v -1.002693 -0.002693 0.289565
v -0.289565 2.002693 -1.002693
v -1.002693 2.002693 -0.289565
v -1.002693 -0.002693 -0.289565
v -0.289565 -0.002693 -1.002693
v 0.289565 2.002693 1.002693
v 1.002693 2.002693 0.289565
v 1.002693 -0.002693 0.289565
v 0.289565 -0.002693 1.002693
v 1.002693 2.002693 -0.289565
v 0.289565 2.002693 -1.002693
v 0.289565 -0.002693 -1.002693
v 1.002693 -0.002693 -0.289565
v -0.289625 2.000000 0.998686
v -1.002899 2.000000 0.288408
v -1.002899 2.000000 -0.288408
v -0.289625 2.000000 -0.998686
v 1.002899 2.000000 0.288408
v 0.289625 2.000000 0.998686
v 0.289625 2.000000 -0.998686
v 1.002899 2.000000 -0.288408
v -1.002899 2.736049 0.288408
v -1.002899 2.800000 0.062603
v -0.062867 2.800000 0.998686
v -0.289625 2.736049 0.998686
v -0.289625 2.736049 -0.998686
v -0.062867 2.800000 -0.998686
v -1.002899 2.800000 -0.062603
v -1.002899 2.736049 -0.288408
v 0.289625 2.736049 0.998686
v 0.062867 2.800000 0.998686
v 1.002899 2.800000 0.062603
v 1.002899 2.736049 0.288408
v 1.002899 2.736049 -0.288408
v 1.002899 2.800000 -0.062603
v 0.062867 2.800000 -0.998686
v 0.289625 2.736049 -0.998686
v -0.042551 3.223099 0.675950
v -0.678802 3.223099 0.042372
v 0.042551 3.223099 -0.675950
v 0.678802 3.223099 -0.042372
v -0.678802 3.223099 -0.042372
v -0.042551 3.223099 -0.675950
v 0.678802 3.223099 0.042372
v 0.042551 3.223099 0.675950
v -0.289625 3.108565 0.998686
v -0.062867 3.172516 0.998686
v -1.002899 3.172516 0.062603
v -1.002899 3.108565 0.288408
v 0.289625 3.108565 -0.998686
v 0.062867 3.172516 -0.998686
v 1.002899 3.172516 -0.062603
v 1.002899 3.108565 -0.288408
v -1.002899 3.108565 -0.288408
v -1.002899 3.172516 -0.062603
v -0.062867 3.172516 -0.998686
v -0.289625 3.108565 -0.998686
v 1.002899 3.108565 0.288408
v 1.002899 3.172516 0.062603
v 0.062867 3.172516 0.998686
v 0.289625 3.108565 0.998686
v -1.294601 2.800000 0.062603
v -1.294601 2.736049 0.288408
v -1.294601 2.736049 -0.288408
v -1.294601 2.800000 -0.062603
v -1.294601 3.172516 0.062603
v -1.294601 3.108565 0.288408
v -1.294601 3.108565 -0.288408
v -1.294601 3.172516 -0.062603
v 0.289625 2.736049 -1.338021
v 0.062867 2.800000 -1.338021
v -0.062867 2.800000 -1.338021
v -0.289625 2.736049 -1.338021
v 0.289625 3.108565 -1.338021
v 0.062867 3.172516 -1.338021
v -0.062867 3.172516 -1.338021
v -0.289625 3.108565 -1.338021
v -0.289625 2.736049 1.341979
v -0.062867 2.800000 1.341979
v 0.062867 2.800000 1.341979
v 0.289625 2.736049 1.341979
v -0.289625 3.108565 1.341979
v -0.062867 3.172516 1.341979
v 0.062867 3.172516 1.341979
v 0.289625 3.108565 1.341979
v 1.325399 2.800000 -0.062603
v 1.325399 2.736049 -0.288408
v 1.325399 2.736049 0.288408
v 1.325399 2.800000 0.062603
v 1.325399 3.172516 -0.062603
v 1.325399 3.108565 -0.288408
v 1.325399 3.108565 0.288408
v 1.325399 3.172516 0.062603
v -0.289625 3.337430 0.998686
v -0.062867 3.401382 0.998686
v -1.002899 3.401382 0.062603
v -1.002899 3.337430 0.288408
v 0.289625 3.337430 -0.998686
v 0.062867 3.401382 -0.998686
v 1.002899 3.401382 -0.062603
v 1.002899 3.337430 -0.288408
v -1.002899 3.337430 -0.288408
v -1.002899 3.401382 -0.062603
v -0.062867 3.401382 -0.998686
v -0.289625 3.337430 -0.998686
v 1.002899 3.337430 0.288408
v 1.002899 3.401382 0.062603
v 0.062867 3.401382 0.998686
v 0.289625 3.337430 0.998686
v -1.294601 3.401382 0.062603
v -1.294601 3.337430 0.288408
v -1.294601 3.337430 -0.288408
v -1.294601 3.401382 -0.062603
v 0.289625 3.337430 -1.338021
v 0.062867 3.401382 -1.338021
v -0.062867 3.401382 -1.338021
v -0.289625 3.337430 -1.338021
v -0.289625 3.337430 1.341979
v -0.062867 3.401382 1.341979
v 0.062867 3.401382 1.341979
v 0.289625 3.337430 1.341979
v 1.325399 3.028865 -0.062603
v 1.325399 2.964914 -0.288408
v 1.325399 2.964914 0.288408
v 1.325399 3.028865 0.062603
v 1.325399 3.401382 -0.062603
v 1.325399 3.337430 -0.288408
v 1.325399 3.337430 0.288408
v 1.325399 3.401382 0.062603
v -0.289625 3.752548 0.998686
v -0.062867 3.816500 0.998686
v -1.002899 3.816500 0.062603
v -1.002899 3.752548 0.288408
v 0.289625 3.752548 -0.998686
v 0.062867 3.816500 -0.998686
v 1.002899 3.816500 -0.062603
v 1.002899 3.752548 -0.288408
v -1.002899 3.752548 -0.288408
v -1.002899 3.816500 -0.062603
v -0.062867 3.816500 -0.998686
v -0.289625 3.752548 -0.998686
v 1.002899 3.752548 0.288408
v 1.002899 3.816500 0.062603
v 0.062867 3.816500 0.998686
v 0.289625 3.752548 0.998686
v -1.294601 3.816500 0.062603
v -1.294601 3.752548 0.288408
v -1.294601 3.752548 -0.288408
v -1.294601 3.816500 -0.062603
v 0.289625 3.752548 -1.338021
v 0.062867 3.816500 -1.338021
v -0.062867 3.816500 -1.338021
v -0.289625 3.752548 -1.338021
v -0.289625 3.752548 1.341979
v -0.062867 3.816500 1.341979
v 0.062867 3.816500 1.341979
v 0.289625 3.752548 1.341979
v 1.325399 3.443984 -0.062603
v 1.325399 3.380032 -0.288408
v 1.325399 3.380032 0.288408
v 1.325399 3.443984 0.062603
v 1.325399 3.816500 -0.062603
v 1.325399 3.752548 -0.288408
v 1.325399 3.752548 0.288408
v 1.325399 3.816500 0.062603
v -0.042551 3.738951 0.675950
v 0.000328 3.780238 0.572868
v -0.575284 3.780238 -0.000326
v -0.678802 3.738951 0.042372
v 0.042551 3.738951 -0.675950
v -0.000328 3.780238 -0.572868
v 0.575284 3.780238 0.000326
v 0.678802 3.738951 -0.042372
v -0.678802 3.738951 -0.042372
v -0.575284 3.780238 0.000326
v 0.000328 3.780238 -0.572868
v -0.042551 3.738951 -0.675950
v 0.678802 3.738951 0.042372
v 0.575284 3.780238 -0.000326
v -0.000328 3.780238 0.572868
v 0.042551 3.738951 0.675950
v 0.000687 4.217326 1.200682
v -1.205748 4.217326 -0.000684
v -0.000687 4.217326 -1.200682
v 1.205748 4.217326 0.000684
v -1.205748 4.217326 0.000684
v 0.000687 4.217326 -1.200682
v 1.205748 4.217326 -0.000684
v -0.000687 4.217326 1.200682
vn -0.0000 -1.0000 -0.0000
vn 1.0000 -0.0000 -0.0000
vn -0.0000 -0.0000 -1.0000
vn -0.0000 1.0000 -0.0000
vn -1.0000 -0.0000 -0.0000
vn -0.7071 -0.0000 0.7071
vn 0.7071 -0.0000 -0.7071
vn -0.7071 -0.0000 -0.7071
vn 0.7071 -0.0000 0.7071
vn -0.0000 -0.0000 1.0000
vn 0.7056 -0.0000 -0.7086
vn 0.7056 -0.0000 0.7086
vn -0.6119 0.4981 0.6144
vn -0.7056 -0.0000 -0.7086
vn -0.7056 -0.0000 0.7086
vn 0.7939 0.6081 -0.0000
vn 0.6119 0.4981 0.6144
vn -0.0000 0.6065 -0.7951
vn -0.0000 0.6065 0.7951
vn -0.6119 0.4981 -0.6144
vn -0.7939 0.6081 -0.0000
vn 0.6119 0.4981 -0.6144
vn -0.2619 0.9286 0.2630
vn 0.2619 0.9286 -0.2630
vn -0.2619 0.9286 -0.2630
vn 0.2619 0.9286 0.2630
vn -0.2714 -0.9625 -0.0000
vn -0.0000 -0.9622 0.2725
vn -0.0000 -0.9622 -0.2725
vn 0.2714 -0.9625 -0.0000
vn 0.2714 0.9625 -0.0000
vn -0.0000 0.9622 -0.2725
vn -0.0000 0.9622 0.2725
vn -0.2714 0.9625 -0.0000
vn 0.4947 -0.7131 0.4968
vn -0.3705 0.9288 -0.0000
vn -0.0000 0.9283 0.3718
vn 0.3705 0.9288 -0.0000
vn -0.0000 0.9283 -0.3718
vn -0.4947 -0.7131 -0.4968
vn 0.5697 0.8218 -0.0000
vn 0.4947 -0.7131 -0.4968
vn -0.0000 0.8207 0.5714
vn -0.4947 -0.7131 0.4968
vn -0.5697 0.8218 -0.0000
vn -0.0000 0.8207 -0.5714
vt 0.125000 0.588902
vt 0.213902 0.500000
vt 0.286098 0.500000
vt 0.375000 0.588902
vt 0.375000 0.661098
vt 0.286098 0.750000
vt 0.213902 0.750000
vt 0.125000 0.661098
vt 0.375000 0.088902
vt 0.625000 0.088902
vt 0.625000 0.161098
vt 0.375000 0.161098
vt 0.375000 0.838902
vt 0.625000 0.838902
vt 0.625000 0.911098
vt 0.375000 0.911098
vt 0.625000 0.588902
vt 0.713902 0.500000
vt 0.786098 0.500000
vt 0.875000 0.588902
vt 0.875000 0.661098
vt 0.786098 0.750000
vt 0.713902 0.750000
vt 0.625000 0.661098
vt 0.375000 0.411098
vt 0.625000 0.411098
vt 0.375000 0.000000
vt 0.625000 0.000000
vt 0.625000 0.338902
vt 0.375000 0.338902
vt 0.605015 0.000000
vt 0.605015 0.088902
vt 0.605015 0.338902
vt 0.605015 0.161098
vt 0.625000 0.367164
vt 0.625000 0.382836
vt 0.605015 0.411098
vt 0.605015 0.588902
vt 0.625000 0.617164
vt 0.625000 0.632836
vt 0.605015 0.661098
vt 0.605015 0.838902
vt 0.625000 0.867164
vt 0.625000 0.882836
vt 0.605015 0.911098
vt 0.605015 0.088902
vt 0.625000 0.117164
vt 0.625000 0.132836
vt 0.625000 0.382836
vt 0.625000 0.088902
vt 0.749940 0.519063
vt 0.855937 0.625060
vt 0.750060 0.519063
vt 0.644063 0.625060
vt 0.742164 0.500000
vt 0.749940 0.730937
vt 0.855937 0.624940
vt 0.875000 0.632836
vt 0.757836 0.750000
vt 0.644063 0.624940
vt 0.750060 0.730937
vt 0.742164 0.750000
vt 0.757836 0.500000
vt 0.875000 0.617164
vt 0.625000 0.588902
s 0
usemtl Material.001
f 11/1/1 12/2/1 3/3/1 4/4/1 7/5/1 8/6/1 15/7/1 16/8/1
f 16/9/2 13/10/2 10/11/2 11/12/2
f 8/13/3 5/14/3 14/15/3 15/16/3
f 1/17/4 2/18/4 9/19/4 10/20/4 13/21/4 14/22/4 5/23/4 6/24/4
f 4/4/5 1/17/5 6/24/5 7/5/5
f 1/17/6 4/4/6 3/25/6 2/26/6
f 15/27/7 14/28/7 13/10/7 16/9/7
f 5/14/8 8/13/8 7/5/8 6/24/8
f 9/29/9 12/30/9 11/12/9 10/11/9
f 12/30/10 9/29/10 2/26/10 3/25/10
usemtl Material
f 21/1/1 22/2/1 17/3/1 18/4/1 19/5/1 20/6/1 23/7/1 24/8/1
f 23/27/11 40/31/11 37/32/11 24/9/11
f 33/33/12 22/30/12 21/12/12 36/34/12
f 22/30/10 33/33/10 34/35/10 27/36/10 28/37/10 17/25/10
f 26/17/13 27/26/13 41/26/13 42/17/13
f 18/4/5 25/38/5 26/39/5 31/40/5 32/41/5 19/5/5
f 20/13/3 29/42/3 30/43/3 39/44/3 40/45/3 23/16/3
f 24/9/2 37/46/2 38/47/2 35/48/2 36/34/2 21/12/2
f 29/42/14 20/13/14 19/5/14 32/41/14
f 25/38/15 28/37/15 49/37/15 52/38/15
f 39/28/5 54/28/5 78/28/5 74/28/5
f 51/17/3 26/17/3 65/17/3 69/17/3
f 31/24/12 30/14/12 59/14/12 58/24/12
f 25/38/15 18/4/15 17/25/15 28/37/15
f 43/44/3 46/43/3 180/43/3 173/44/3
f 35/48/16 38/47/16 44/47/16 47/48/16
f 34/29/17 35/11/17 47/11/17 48/29/17
f 39/44/18 30/43/18 46/43/18 43/44/18
f 27/36/19 34/35/19 48/35/19 41/36/19
f 30/14/20 31/24/20 45/24/20 46/14/20
f 31/40/21 26/39/21 42/39/21 45/40/21
f 38/10/22 39/28/22 43/28/22 44/10/22
f 50/26/23 51/17/23 52/38/23 49/37/23
f 54/28/24 55/10/24 56/32/24 53/31/24
f 58/24/25 59/14/25 60/42/25 57/41/25
f 62/11/26 63/29/26 64/33/26 61/34/26
f 29/42/14 32/41/14 57/41/14 60/42/14
f 59/14/2 30/14/2 75/14/2 79/14/2
f 55/10/10 38/10/10 89/10/10 93/10/10
f 39/28/15 38/10/15 55/10/15 54/28/15
f 35/11/14 34/29/14 63/29/14 62/11/14
f 37/32/3 56/32/3 94/32/3 90/32/3
f 56/32/5 55/10/5 103/10/5 104/32/5
f 37/32/11 40/31/11 53/31/11 56/32/11
f 34/35/27 33/33/27 84/33/27 83/35/27
f 33/33/12 36/34/12 61/34/12 64/33/12
f 25/38/10 52/38/10 70/38/10 66/38/10
f 27/26/11 26/17/11 51/17/11 50/26/11
f 65/39/5 66/38/5 70/38/5 69/39/5
f 67/41/5 68/40/5 72/40/5 71/41/5
f 32/41/28 31/40/28 68/40/28 67/41/28
f 57/41/3 71/41/3 115/41/3 105/41/3
f 31/24/10 58/24/10 72/24/10 68/24/10
f 26/39/29 25/38/29 66/38/29 65/39/29
f 93/10/10 89/10/10 125/10/10 129/10/10
f 57/41/3 32/41/3 67/41/3 71/41/3
f 75/43/3 76/42/3 80/42/3 79/43/3
f 73/45/3 74/44/3 78/44/3 77/45/3
f 30/43/30 29/42/30 76/42/30 75/43/30
f 95/34/4 91/34/4 127/34/4 131/34/4
f 40/45/27 39/44/27 74/44/27 73/45/27
f 78/28/5 54/28/5 102/28/5 118/28/5
f 53/31/2 40/31/2 73/31/2 77/31/2
f 29/42/5 60/42/5 80/42/5 76/42/5
f 83/35/10 84/33/10 88/33/10 87/35/10
f 81/37/10 82/36/10 86/36/10 85/37/10
f 49/37/5 28/37/5 81/37/5 85/37/5
f 33/33/2 64/33/2 88/33/2 84/33/2
f 63/29/5 34/29/5 83/29/5 87/29/5
f 28/37/30 27/36/30 82/36/30 81/37/30
f 54/28/10 53/31/10 101/31/10 102/28/10
f 27/26/2 50/26/2 86/26/2 82/26/2
f 92/11/3 96/11/3 132/11/3 128/11/3
f 59/14/2 79/14/2 119/14/2 107/14/2
f 35/11/3 62/11/3 96/11/3 92/11/3
f 36/34/29 35/48/29 92/48/29 91/34/29
f 51/17/3 69/17/3 113/17/3 99/17/3
f 38/47/28 37/46/28 90/46/28 89/47/28
f 52/38/2 51/17/2 99/17/2 100/38/2
f 61/34/10 36/34/10 91/34/10 95/34/10
f 118/28/5 102/28/5 138/28/5 154/28/5
f 128/11/10 132/11/10 168/11/10 164/11/10
f 104/32/5 103/10/5 139/10/5 140/32/5
f 107/14/2 119/14/2 155/14/2 143/14/2
f 102/28/10 101/31/10 137/31/10 138/28/10
f 119/43/3 120/42/3 156/42/3 155/43/3
f 100/38/2 99/17/2 135/17/2 136/38/2
f 117/45/3 118/44/3 154/44/3 153/45/3
f 127/34/2 128/48/2 164/48/2 163/34/2
f 98/26/3 97/37/3 133/37/3 134/26/3
f 90/32/4 94/32/4 130/32/4 126/32/4
f 72/24/10 58/24/10 106/24/10 116/24/10
f 63/29/5 87/29/5 123/29/5 111/29/5
f 69/39/5 70/38/5 114/38/5 113/39/5
f 80/42/5 60/42/5 108/42/5 120/42/5
f 94/32/3 56/32/3 104/32/3 130/32/3
f 88/33/2 64/33/2 112/33/2 124/33/2
f 58/24/2 57/41/2 105/41/2 106/24/2
f 71/41/5 72/40/5 116/40/5 115/41/5
f 53/31/2 77/31/2 117/31/2 101/31/2
f 77/45/3 78/44/3 118/44/3 117/45/3
f 49/37/5 85/37/5 121/37/5 97/37/5
f 60/42/10 59/14/10 107/14/10 108/42/10
f 55/10/10 93/10/10 129/10/10 103/10/10
f 79/43/3 80/42/3 120/42/3 119/43/3
f 96/11/3 62/11/3 110/11/3 132/11/3
f 86/26/2 50/26/2 98/26/2 122/26/2
f 62/11/5 61/34/5 109/34/5 110/11/5
f 85/37/10 86/36/10 122/36/10 121/37/10
f 89/47/2 90/46/2 126/46/2 125/47/2
f 70/38/10 52/38/10 100/38/10 114/38/10
f 87/35/10 88/33/10 124/33/10 123/35/10
f 50/26/3 49/37/3 97/37/3 98/26/3
f 91/34/2 92/48/2 128/48/2 127/34/2
f 64/33/3 63/29/3 111/29/3 112/33/3
f 61/34/10 95/34/10 131/34/10 109/34/10
f 148/33/31 147/29/31 159/29/31 160/33/31
f 142/24/32 141/41/32 151/41/32 152/24/32
f 136/38/33 135/17/33 149/17/33 150/38/33
f 144/42/34 143/14/34 155/14/34 156/42/34
f 138/28/31 137/31/31 153/31/31 154/28/31
f 134/26/34 133/37/34 157/37/34 158/26/34
f 163/34/2 164/48/2 168/48/2 167/34/2
f 161/47/2 162/46/2 166/46/2 165/47/2
f 146/11/33 145/34/33 167/34/33 168/11/33
f 140/32/32 139/10/32 165/10/32 166/32/32
f 106/24/2 105/41/2 141/41/2 142/24/2
f 131/34/10 127/34/10 163/34/10 167/34/10
f 120/42/5 108/42/5 144/42/5 156/42/5
f 108/42/10 107/14/10 143/14/10 144/42/10
f 129/10/3 125/10/3 161/10/3 165/10/3
f 101/31/2 117/31/2 153/31/2 137/31/2
f 110/11/5 109/34/5 145/34/5 146/11/5
f 126/32/4 130/32/4 166/32/4 162/32/4
f 121/37/10 122/36/10 158/36/10 157/37/10
f 112/33/3 111/29/3 147/29/3 148/33/3
f 130/32/3 104/32/3 140/32/3 166/32/3
f 123/35/10 124/33/10 160/33/10 159/35/10
f 113/39/5 114/38/5 150/38/5 149/39/5
f 103/10/10 129/10/10 165/10/10 139/10/10
f 111/29/5 123/29/5 159/29/5 147/29/5
f 115/41/5 116/40/5 152/40/5 151/41/5
f 132/11/3 110/11/3 146/11/3 168/11/3
f 124/33/2 112/33/2 148/33/2 160/33/2
f 114/38/10 100/38/10 136/38/10 150/38/10
f 109/34/10 131/34/10 167/34/10 145/34/10
f 97/37/5 121/37/5 157/37/5 133/37/5
f 99/17/3 113/17/3 149/17/3 135/17/3
f 122/26/2 98/26/2 134/26/2 158/26/2
f 105/41/3 115/41/3 151/41/3 141/41/3
f 125/47/2 126/46/2 162/46/2 161/47/2
f 116/24/10 106/24/10 142/24/10 152/24/10
f 41/36/10 48/35/10 184/35/10 169/49/10
f 46/14/14 45/24/14 177/24/14 180/14/14
f 44/10/11 43/28/11 173/28/11 176/50/11
f 48/29/12 47/11/12 181/11/12 184/29/12
f 183/51/35 182/52/35 191/52/35 192/51/35
f 47/48/2 44/47/2 176/47/2 181/48/2
f 45/40/5 42/39/5 172/39/5 177/40/5
f 170/53/23 171/54/23 172/39/23 169/55/23
f 174/56/24 175/57/24 176/58/24 173/59/24
f 178/60/25 179/61/25 180/62/25 177/40/25
f 182/52/26 183/51/26 184/63/26 181/64/26
f 171/54/36 178/60/36 177/40/36 172/39/36
f 169/55/37 184/63/37 183/51/37 170/53/37
f 181/64/38 176/58/38 175/57/38 182/52/38
f 173/59/39 180/62/39 179/61/39 174/56/39
f 42/17/15 41/26/15 169/26/15 172/65/15
f 186/54/4 185/53/4 192/51/4 191/52/4 188/57/4 187/56/4 190/61/4 189/60/4
f 179/61/40 178/60/40 189/60/40 190/61/40
f 178/60/41 171/54/41 186/54/41 189/60/41
f 175/57/42 174/56/42 187/56/42 188/57/42
f 174/56/43 179/61/43 190/61/43 187/56/43
f 171/54/44 170/53/44 185/53/44 186/54/44
f 182/52/45 175/57/45 188/57/45 191/52/45
f 170/53/46 183/51/46 192/51/46 185/53/46
